<mxfile host="app.diagrams.net" agent="Mozilla/5.0 (X11; Linux x86_64) AppleWebKit/537.36 (KHTML, like Gecko) Chrome/130.0.0.0 Safari/537.36" version="26.0.6">
  <diagram name="Page-1" id="vxOPZugNCJ2shPD0R46R">
    <mxGraphModel dx="2049" dy="1046" grid="1" gridSize="10" guides="1" tooltips="1" connect="1" arrows="1" fold="1" page="1" pageScale="1" pageWidth="550" pageHeight="1100" math="0" shadow="0">
      <root>
        <mxCell id="0" />
        <mxCell id="1" parent="0" />
        <mxCell id="WV4KZU-K2HEF4Ivt-XvY-5" value="SEC-350 WAN 10.0.17.0/24" style="rounded=1;whiteSpace=wrap;html=1;align=center;" parent="1" vertex="1">
          <mxGeometry x="485" y="360" width="340" height="40" as="geometry" />
        </mxCell>
        <mxCell id="WV4KZU-K2HEF4Ivt-XvY-7" value="LAN 172.16.150.0/24" style="rounded=1;whiteSpace=wrap;html=1;align=center;" parent="1" vertex="1">
          <mxGeometry x="711" y="720" width="340" height="40" as="geometry" />
        </mxCell>
        <mxCell id="WV4KZU-K2HEF4Ivt-XvY-8" value="DMZ 172.16.50.0/29" style="rounded=1;whiteSpace=wrap;html=1;align=center;" parent="1" vertex="1">
          <mxGeometry x="231" y="730" width="340" height="40" as="geometry" />
        </mxCell>
        <mxCell id="WV4KZU-K2HEF4Ivt-XvY-9" value="FW01" style="outlineConnect=0;dashed=0;verticalLabelPosition=bottom;verticalAlign=top;align=center;html=1;shape=mxgraph.aws3.router;fillColor=#F58534;gradientColor=none;" parent="1" vertex="1">
          <mxGeometry x="596" y="502.6" width="69" height="72" as="geometry" />
        </mxCell>
        <mxCell id="WV4KZU-K2HEF4Ivt-XvY-10" value="" style="endArrow=none;html=1;rounded=0;entryX=0.855;entryY=0.855;entryDx=0;entryDy=0;entryPerimeter=0;exitX=0.104;exitY=0;exitDx=0;exitDy=0;exitPerimeter=0;" parent="1" source="WV4KZU-K2HEF4Ivt-XvY-7" target="WV4KZU-K2HEF4Ivt-XvY-9" edge="1">
          <mxGeometry width="50" height="50" relative="1" as="geometry">
            <mxPoint x="921" y="710" as="sourcePoint" />
            <mxPoint x="971" y="660" as="targetPoint" />
          </mxGeometry>
        </mxCell>
        <mxCell id="WV4KZU-K2HEF4Ivt-XvY-12" value="172.16.150.2&lt;div&gt;eth2&lt;/div&gt;" style="edgeLabel;html=1;align=center;verticalAlign=middle;resizable=0;points=[];rotation=0;" parent="WV4KZU-K2HEF4Ivt-XvY-10" vertex="1" connectable="0">
          <mxGeometry x="0.002" y="2" relative="1" as="geometry">
            <mxPoint x="-9" y="-23" as="offset" />
          </mxGeometry>
        </mxCell>
        <mxCell id="WV4KZU-K2HEF4Ivt-XvY-15" value="" style="endArrow=none;html=1;rounded=0;entryX=0.145;entryY=0.855;entryDx=0;entryDy=0;entryPerimeter=0;exitX=0.829;exitY=-0.05;exitDx=0;exitDy=0;exitPerimeter=0;" parent="1" source="WV4KZU-K2HEF4Ivt-XvY-8" target="WV4KZU-K2HEF4Ivt-XvY-9" edge="1">
          <mxGeometry width="50" height="50" relative="1" as="geometry">
            <mxPoint x="491" y="560" as="sourcePoint" />
            <mxPoint x="541" y="510" as="targetPoint" />
          </mxGeometry>
        </mxCell>
        <mxCell id="WV4KZU-K2HEF4Ivt-XvY-16" value="172.16.50.2&lt;div&gt;eth1&lt;/div&gt;" style="edgeLabel;html=1;align=center;verticalAlign=middle;resizable=0;points=[];rotation=0;" parent="WV4KZU-K2HEF4Ivt-XvY-15" vertex="1" connectable="0">
          <mxGeometry x="0.4" y="-1" relative="1" as="geometry">
            <mxPoint x="-8" y="6" as="offset" />
          </mxGeometry>
        </mxCell>
        <mxCell id="WV4KZU-K2HEF4Ivt-XvY-17" value="WEB01&lt;div&gt;.3&lt;/div&gt;" style="outlineConnect=0;dashed=0;verticalLabelPosition=bottom;verticalAlign=top;align=center;html=1;shape=mxgraph.aws3.traditional_server;fillColor=#7D7C7C;gradientColor=none;" parent="1" vertex="1">
          <mxGeometry x="261" y="810" width="46.5" height="63" as="geometry" />
        </mxCell>
        <mxCell id="WV4KZU-K2HEF4Ivt-XvY-18" value="LOG01&lt;div&gt;.5&lt;/div&gt;" style="outlineConnect=0;dashed=0;verticalLabelPosition=bottom;verticalAlign=top;align=center;html=1;shape=mxgraph.aws3.traditional_server;fillColor=#7D7C7C;gradientColor=none;" parent="1" vertex="1">
          <mxGeometry x="331" y="810" width="46.5" height="63" as="geometry" />
        </mxCell>
        <mxCell id="WV4KZU-K2HEF4Ivt-XvY-20" value="" style="endArrow=none;html=1;rounded=0;entryX=0.5;entryY=0;entryDx=0;entryDy=0;entryPerimeter=0;exitX=0.357;exitY=1.022;exitDx=0;exitDy=0;exitPerimeter=0;" parent="1" source="WV4KZU-K2HEF4Ivt-XvY-8" target="WV4KZU-K2HEF4Ivt-XvY-18" edge="1">
          <mxGeometry width="50" height="50" relative="1" as="geometry">
            <mxPoint x="481" y="850" as="sourcePoint" />
            <mxPoint x="531" y="800" as="targetPoint" />
          </mxGeometry>
        </mxCell>
        <mxCell id="WV4KZU-K2HEF4Ivt-XvY-21" value="" style="endArrow=none;html=1;rounded=0;entryX=0.5;entryY=0;entryDx=0;entryDy=0;entryPerimeter=0;exitX=0.153;exitY=0.975;exitDx=0;exitDy=0;exitPerimeter=0;" parent="1" source="WV4KZU-K2HEF4Ivt-XvY-8" target="WV4KZU-K2HEF4Ivt-XvY-17" edge="1">
          <mxGeometry width="50" height="50" relative="1" as="geometry">
            <mxPoint x="481" y="850" as="sourcePoint" />
            <mxPoint x="531" y="800" as="targetPoint" />
          </mxGeometry>
        </mxCell>
        <mxCell id="WV4KZU-K2HEF4Ivt-XvY-22" value="RW01&lt;div&gt;10.0.17.51&lt;/div&gt;" style="image;points=[];aspect=fixed;html=1;align=center;shadow=0;dashed=0;image=img/lib/allied_telesis/computer_and_terminals/Laptop.svg;" parent="1" vertex="1">
          <mxGeometry x="765" y="460" width="42" height="42.599999999999994" as="geometry" />
        </mxCell>
        <mxCell id="WV4KZU-K2HEF4Ivt-XvY-23" value="" style="endArrow=none;html=1;rounded=0;entryX=0.5;entryY=0;entryDx=0;entryDy=0;entryPerimeter=0;exitX=0.432;exitY=1.047;exitDx=0;exitDy=0;exitPerimeter=0;" parent="1" source="WV4KZU-K2HEF4Ivt-XvY-5" target="WV4KZU-K2HEF4Ivt-XvY-9" edge="1">
          <mxGeometry width="50" height="50" relative="1" as="geometry">
            <mxPoint x="805" y="530" as="sourcePoint" />
            <mxPoint x="855" y="480" as="targetPoint" />
          </mxGeometry>
        </mxCell>
        <mxCell id="6gv1575Ye6TbEdJx1Vt9-2" value="10.0.17.151&lt;div&gt;eth0&lt;/div&gt;" style="edgeLabel;html=1;align=center;verticalAlign=middle;resizable=0;points=[];" vertex="1" connectable="0" parent="WV4KZU-K2HEF4Ivt-XvY-23">
          <mxGeometry x="0.4517" y="1" relative="1" as="geometry">
            <mxPoint as="offset" />
          </mxGeometry>
        </mxCell>
        <mxCell id="WV4KZU-K2HEF4Ivt-XvY-24" value="" style="endArrow=none;html=1;rounded=0;entryX=0.615;entryY=-0.02;entryDx=0;entryDy=0;entryPerimeter=0;exitX=0.902;exitY=0.979;exitDx=0;exitDy=0;exitPerimeter=0;" parent="1" source="WV4KZU-K2HEF4Ivt-XvY-5" target="WV4KZU-K2HEF4Ivt-XvY-22" edge="1">
          <mxGeometry width="50" height="50" relative="1" as="geometry">
            <mxPoint x="725" y="500" as="sourcePoint" />
            <mxPoint x="775" y="450" as="targetPoint" />
          </mxGeometry>
        </mxCell>
        <mxCell id="WV4KZU-K2HEF4Ivt-XvY-25" value="esxi02-fw1" style="image;html=1;image=img/lib/clip_art/networking/Firewall_02_128x128.png" parent="1" vertex="1">
          <mxGeometry x="376.01" y="90" width="80" height="80" as="geometry" />
        </mxCell>
        <mxCell id="WV4KZU-K2HEF4Ivt-XvY-26" value="&lt;div&gt;&lt;br&gt;&lt;/div&gt;" style="shape=umlActor;verticalLabelPosition=bottom;verticalAlign=top;html=1;outlineConnect=0;" parent="1" vertex="1">
          <mxGeometry x="50" y="130" width="50" height="80" as="geometry" />
        </mxCell>
        <mxCell id="WV4KZU-K2HEF4Ivt-XvY-27" value="" style="endArrow=none;html=1;rounded=0;exitX=0;exitY=1;exitDx=0;exitDy=0;" parent="1" source="WV4KZU-K2HEF4Ivt-XvY-25" target="WV4KZU-K2HEF4Ivt-XvY-26" edge="1">
          <mxGeometry width="50" height="50" relative="1" as="geometry">
            <mxPoint x="460" y="390" as="sourcePoint" />
            <mxPoint x="510" y="340" as="targetPoint" />
          </mxGeometry>
        </mxCell>
        <mxCell id="6gv1575Ye6TbEdJx1Vt9-1" value="access via vSphere" style="edgeLabel;html=1;align=center;verticalAlign=middle;resizable=0;points=[];" vertex="1" connectable="0" parent="WV4KZU-K2HEF4Ivt-XvY-27">
          <mxGeometry x="0.1309" y="-2" relative="1" as="geometry">
            <mxPoint x="5" as="offset" />
          </mxGeometry>
        </mxCell>
        <mxCell id="WV4KZU-K2HEF4Ivt-XvY-29" value="sec350.cyber.local&lt;div&gt;10.0.17.100&lt;/div&gt;" style="image;points=[];aspect=fixed;html=1;align=center;shadow=0;dashed=0;image=img/lib/allied_telesis/computer_and_terminals/Server_Desktop.svg;" parent="1" vertex="1">
          <mxGeometry x="350" y="340" width="56.01" height="71" as="geometry" />
        </mxCell>
        <mxCell id="WV4KZU-K2HEF4Ivt-XvY-30" value="" style="endArrow=none;html=1;rounded=0;entryX=0;entryY=1;entryDx=0;entryDy=0;exitX=0.417;exitY=0.031;exitDx=0;exitDy=0;exitPerimeter=0;" parent="1" source="WV4KZU-K2HEF4Ivt-XvY-29" target="WV4KZU-K2HEF4Ivt-XvY-25" edge="1">
          <mxGeometry width="50" height="50" relative="1" as="geometry">
            <mxPoint x="620" y="470" as="sourcePoint" />
            <mxPoint x="670" y="420" as="targetPoint" />
          </mxGeometry>
        </mxCell>
        <mxCell id="WV4KZU-K2HEF4Ivt-XvY-31" value="port forwarding" style="edgeLabel;html=1;align=center;verticalAlign=middle;resizable=0;points=[];rotation=90;" parent="WV4KZU-K2HEF4Ivt-XvY-30" vertex="1" connectable="0">
          <mxGeometry x="-0.27" y="1" relative="1" as="geometry">
            <mxPoint x="-7" as="offset" />
          </mxGeometry>
        </mxCell>
        <mxCell id="WV4KZU-K2HEF4Ivt-XvY-32" value="" style="endArrow=none;html=1;rounded=0;exitX=0;exitY=0.5;exitDx=0;exitDy=0;" parent="1" source="WV4KZU-K2HEF4Ivt-XvY-5" edge="1">
          <mxGeometry width="50" height="50" relative="1" as="geometry">
            <mxPoint x="570" y="440" as="sourcePoint" />
            <mxPoint x="410" y="380" as="targetPoint" />
          </mxGeometry>
        </mxCell>
        <mxCell id="WV4KZU-K2HEF4Ivt-XvY-33" value="" style="endArrow=none;html=1;rounded=0;entryX=1;entryY=0.965;entryDx=0;entryDy=0;entryPerimeter=0;exitX=0.49;exitY=-0.035;exitDx=0;exitDy=0;exitPerimeter=0;" parent="1" source="WV4KZU-K2HEF4Ivt-XvY-5" target="WV4KZU-K2HEF4Ivt-XvY-25" edge="1">
          <mxGeometry width="50" height="50" relative="1" as="geometry">
            <mxPoint x="600" y="310" as="sourcePoint" />
            <mxPoint x="650" y="260" as="targetPoint" />
          </mxGeometry>
        </mxCell>
        <mxCell id="WV4KZU-K2HEF4Ivt-XvY-34" value="10.0.17.2" style="edgeLabel;html=1;align=center;verticalAlign=middle;resizable=0;points=[];" parent="WV4KZU-K2HEF4Ivt-XvY-33" vertex="1" connectable="0">
          <mxGeometry x="0.7364" y="-1" relative="1" as="geometry">
            <mxPoint x="8" y="8" as="offset" />
          </mxGeometry>
        </mxCell>
      </root>
    </mxGraphModel>
  </diagram>
</mxfile>
